<?xml version="1.0" encoding="UTF-8" standalone="no"?>
<svg
   width="246"
   height="28"
   viewBox="0 0 246 28"
   version="1.1"
   xml:space="preserve"
   style="clip-rule:evenodd;fill-rule:evenodd;stroke-linejoin:round;stroke-miterlimit:2"
   id="svg55"
   sodipodi:docname="logo_nau_by_fccn.svg"
   inkscape:version="1.3.2 (091e20e, 2023-11-25, custom)"
   xmlns:inkscape="http://www.inkscape.org/namespaces/inkscape"
   xmlns:sodipodi="http://sodipodi.sourceforge.net/DTD/sodipodi-0.dtd"
   xmlns="http://www.w3.org/2000/svg"
   xmlns:svg="http://www.w3.org/2000/svg"><sodipodi:namedview
     id="namedview1"
     pagecolor="#ffffff"
     bordercolor="#000000"
     borderopacity="0.25"
     inkscape:showpageshadow="2"
     inkscape:pageopacity="0.0"
     inkscape:pagecheckerboard="0"
     inkscape:deskcolor="#d1d1d1"
     inkscape:zoom="3.7845528"
     inkscape:cx="121.81096"
     inkscape:cy="12.418904"
     inkscape:window-width="1440"
     inkscape:window-height="838"
     inkscape:window-x="-6"
     inkscape:window-y="-6"
     inkscape:window-maximized="1"
     inkscape:current-layer="svg55" /><defs
     id="defs59"><style
       id="style1">
      .cls-1 {
        fill: #000;
        stroke-width: 0px;
      }
    </style></defs><rect
     id="Artboard1"
     x="0"
     y="0"
     width="208.662"
     height="24.712999"
     style="fill:none" /><g
     id="g45"><g
       id="g43"><g
         id="g41"><g
           id="g39"><path
             d="M 85.553,6.653 86.64,6.652 c 0.06,1.058 0.81,1.71 2.153,1.71 1.357,0 2.092,-0.487 2.092,-1.492 0,-0.833 -0.6,-1.193 -1.522,-1.388 L 88.118,5.212 C 86.64,4.897 85.845,4.215 85.845,2.902 c 0,-1.44 1.073,-2.347 2.97,-2.347 1.83,0 3.03,1.027 3.045,2.542 h -1.095 c -0.052,-0.93 -0.66,-1.56 -1.98,-1.56 -1.102,0 -1.83,0.405 -1.83,1.365 0,0.698 0.555,1.073 1.455,1.268 l 1.155,0.247 c 1.59,0.33 2.43,1.148 2.43,2.46 0,1.523 -1.222,2.46 -3.195,2.46 C 86.715,9.33 85.605,8.265 85.552,6.652 Z"
             style="fill:#231f20;fill-rule:nonzero"
             id="path3" /><path
             d="M 94.373,0.668 99.87,0.667 V 1.65 h -4.44 v 2.677 h 4.058 V 5.31 H 95.43 v 2.963 h 4.44 V 9.24 h -5.498 l 0.001,-8.573 z"
             style="fill:#231f20;fill-rule:nonzero"
             id="path5" /><path
             d="m 102.308,0.668 1.267,-0.001 2.887,5.213 h 0.053 l 2.887,-5.213 h 1.23 v 8.558 h -1.02 V 2.362 l -0.052,10e-4 -3.03,5.392 h -0.128 l -3.03,-5.43 h -0.052 v 6.9 h -1.012 z"
             style="fill:#231f20;fill-rule:nonzero"
             id="path7" /><path
             d="m 113.558,0.668 3.149,-0.001 c 1.748,0 2.828,1.111 2.828,2.701 0,1.634 -1.095,2.752 -2.828,2.752 h -2.092 v 3.105 h -1.058 l 0.001,-8.558 z m 3.022,4.47 c 1.185,0 1.86,-0.622 1.86,-1.77 0,-1.095 -0.713,-1.732 -1.86,-1.732 h -1.958 v 3.502 z"
             style="fill:#231f20;fill-rule:nonzero"
             id="path9" /><path
             d="m 128.528,9.09 v 0.12 h -1.155 l -2.25,-3.382 h -2.078 V 9.21 h -1.057 V 0.668 h 3.382 c 1.748,0 2.715,1.11 2.715,2.565 0,1.267 -0.735,2.152 -1.845,2.467 z m -5.49,-4.23 h 2.265 c 1.072,0 1.657,-0.592 1.657,-1.612 0,-0.998 -0.592,-1.598 -1.657,-1.598 h -2.265 z"
             style="fill:#231f20;fill-rule:nonzero"
             id="path11" /><path
             d="m 130.65,0.668 5.498,-0.001 V 1.65 h -4.433 v 2.677 h 4.058 V 5.31 h -4.058 v 2.963 h 4.433 V 9.24 H 130.65 V 0.667 Z"
             style="fill:#231f20;fill-rule:nonzero"
             id="path13" /><path
             d="m 92.91,23.498 v 0.119 h -1.133 l -0.809,-2.235 h -3.736 l -0.817,2.235 h -1.11 v -0.12 l 3.135,-8.43 h 1.305 l 3.165,8.43 z m -2.288,-3.067 -1.5,-4.178 H 89.07 l -1.5,4.178 z"
             style="fill:#231f20;fill-rule:nonzero"
             id="path15" /><path
             d="m 105.885,23.498 v 0.119 h -1.132 l -0.811,-2.235 h -3.734 l -0.81,2.235 h -1.11 v -0.12 l 3.135,-8.43 h 1.305 l 3.157,8.43 z m -2.288,-3.067 -1.5,-4.178 h -0.052 l -1.5,4.178 z"
             style="fill:#231f20;fill-rule:nonzero"
             id="path17" /><path
             d="m 107.962,15.067 h 3.158 c 1.748,0 2.828,1.111 2.828,2.701 -10e-4,1.634 -1.103,2.752 -2.828,2.752 h -2.093 l 0.001,3.098 h -1.066 l 10e-4,-8.551 z m 3.014,4.471 c 1.186,0 1.86,-0.623 1.86,-1.77 0,-1.095 -0.712,-1.733 -1.86,-1.733 h -1.957 v 3.503 z"
             style="fill:#231f20;fill-rule:nonzero"
             id="path19" /><path
             d="m 122.925,23.498 v 0.119 h -1.155 l -2.25,-3.382 h -2.078 l 0.001,3.382 h -1.058 v -8.55 h 3.383 c 1.747,0 2.715,1.111 2.715,2.566 0,1.267 -0.735,2.152 -1.846,2.467 z m -5.482,-4.245 h 2.265 c 1.072,0 1.657,-0.593 1.657,-1.613 0,-1.005 -0.592,-1.597 -1.657,-1.597 h -2.265 z"
             style="fill:#231f20;fill-rule:nonzero"
             id="path21" /><path
             d="m 125.047,15.067 h 5.498 v 0.983 h -4.432 v 2.677 h 4.057 v 0.983 h -4.057 v 2.955 h 4.432 v 0.968 h -5.498 l 0.001,-8.566 z"
             style="fill:#231f20;fill-rule:nonzero"
             id="path23" /><path
             d="m 132.99,15.067 h 1.162 l 4.373,6.811 h 0.053 v -6.81 h 1.049 v 8.557 h -1.169 l -4.373,-6.772 h -0.053 v 6.772 h -1.042 z"
             style="fill:#231f20;fill-rule:nonzero"
             id="path25" /><path
             d="m 142.56,15.067 h 2.835 c 2.438,0 3.81,1.71 3.81,4.276 0,2.384 -1.252,4.275 -3.81,4.275 l -2.835,-10e-4 z m 2.722,7.59 c 1.965,0 2.828,-1.522 2.828,-3.307 0,-1.77 -0.847,-3.3 -2.828,-3.3 h -1.657 v 6.615 h 1.657 z"
             style="fill:#231f20;fill-rule:nonzero"
             id="path27" /><path
             d="m 151.65,15.067 h 5.498 v 0.983 h -4.44 v 2.677 h 4.057 v 0.983 h -4.057 v 2.955 h 4.44 v 0.968 h -5.498 z"
             style="fill:#231f20;fill-rule:nonzero"
             id="path29" /><path
             d="m 166.14,23.498 v 0.119 h -1.155 l -2.25,-3.382 h -2.078 v 3.382 H 159.6 v -8.55 h 3.382 c 1.748,0 2.715,1.111 2.715,2.566 0,1.267 -0.735,2.152 -1.845,2.467 z m -5.483,-4.245 h 2.265 c 1.073,0 1.658,-0.593 1.658,-1.613 0,-1.005 -0.593,-1.597 -1.657,-1.597 h -2.266 z"
             style="fill:#231f20;fill-rule:nonzero"
             id="path31" /><path
             d="m 55.815,18.48 c 0,3.427 2.767,6.21 6.203,6.21 h 0.067 c 2.355,0 4.718,-1.035 6.473,-2.505 l -0.001,1.95 h 9.301 l -0.001,-1.492 h -0.352 c -0.952,0 -1.725,-0.773 -1.725,-1.726 V 3.772 c 0,-0.952 0.773,-1.725 1.725,-1.725 h 0.353 v -1.5 H 68.55 V 17.55 c 0,2.512 -5.475,3.84 -5.475,-0.233 V 6.27 c 0,-3.45 -2.797,-6.248 -6.247,-6.248 L 52.905,0.023 V 1.5 c 1.433,0.308 2.925,2.318 2.925,5.063 z"
             style="fill:#0857ff;fill-rule:nonzero"
             id="path33" /><path
             d="m 22.043,6.233 c 0,-3.428 -2.768,-6.211 -6.203,-6.211 l -0.067,0.001 c -2.355,0 -4.718,1.035 -6.473,2.505 V 0.547 L 0,0.548 v 1.499 h 0.353 c 0.96,0 1.724,0.773 1.724,1.725 v 17.145 c 0,0.96 -0.772,1.726 -1.725,1.726 H 0 v 1.499 H 9.3 V 7.163 c 0,-2.513 5.475,-3.84 5.475,0.232 V 18.45 c 0,3.45 2.805,6.247 6.247,6.247 h 3.923 V 23.22 C 23.512,22.913 22.02,20.903 22.02,18.165 Z"
             style="fill:#0857ff;fill-rule:nonzero"
             id="path35" /><path
             d="M 50.085,18.083 V 8.182 C 50.085,4.74 47.903,1.612 44.617,0.577 43.44,0.202 42.18,0 40.875,0 c -2.745,0 -5.273,0.9 -7.32,2.415 0.015,0.022 0.015,0.022 0,0 C 32.385,0.937 30.592,0 28.575,0 H 24.57 v 1.5 c 1.455,0.315 2.97,2.355 2.97,5.13 v 9.9 c 0,3.45 2.182,6.57 5.467,7.605 1.185,0.375 2.438,0.578 3.735,0.578 2.745,0 5.28,-0.9 7.328,-2.415 1.162,1.462 2.955,2.415 4.972,2.415 h 4.005 v -1.5 C 51.6,22.905 50.085,20.865 50.085,18.082 Z m -6.878,2.775 c -0.525,0.136 -1.072,0.21 -1.642,0.21 -3.66,0 -6.638,-2.377 -6.638,-6.037 V 6.346 c 0,-0.885 -0.18,-1.718 -0.51,-2.49 0.525,-0.135 1.08,-0.21 1.643,-0.21 3.66,0 6.637,2.378 6.637,6.038 v 8.685 c 0,0.884 0.188,1.732 0.518,2.497 0,0 0,-0.008 -0.008,-0.008 z"
             style="fill:#0857ff;fill-rule:nonzero"
             id="path37" /></g></g></g></g><clipPath
     id="_clip1"><rect
       id="by_fccn_positive.svg"
       x="169.995"
       y="13.451"
       width="38.424999"
       height="12.341" /></clipPath><g
     id="g1"
     transform="matrix(0.24055531,0,0,0.24055531,174.84082,8.8458279)"><g
       id="g8"><rect
         class="cls-1"
         x="202.25999"
         y="0.67000002"
         width="0.97000003"
         height="77.239998"
         id="rect1" /><g
         id="g4"><path
           class="cls-1"
           d="M 79.59,19.29 H 54.06 v 6.92 l 12.93,10.15 h -6.12 c 0,0 -5.9,5.95 -5.9,5.95 V 59.3 h 6.86 V 42.63 h 12.28 c 0,0 2.4,-6.28 2.4,-6.28 L 63.83,26.22 H 79.6 v -6.93 z"
           id="path1" /><path
           class="cls-1"
           d="M 109.15,34.44 V 26.23 L 102.29,19.3 H 89.31 l -6.86,6.93 v 26.09 l 6.86,6.96 h 12.98 l 6.86,-6.96 v -8.43 h -6.86 v 8.43 H 89.31 V 26.23 h 12.98 v 8.21 z"
           id="path2" /><path
           class="cls-1"
           d="m 141.71,34.44 v -8.21 l -6.84,-6.91 -0.02,-0.02 h -12.98 l -0.02,0.02 -6.84,6.91 v 26.09 l 6.86,6.96 h 12.98 l 6.86,-6.96 v -8.43 h -6.86 v 8.43 H 121.87 V 26.23 h 12.98 v 8.21 z"
           id="path3-6" /><path
           class="cls-1"
           d="m 154.34,32.72 v 26.55 h -6.76 V 21.09 l 6.78,-1.79 13.6,27.26 V 19.3 h 6.76 v 39.98 h -7.04 L 154.35,32.72 Z"
           id="path4" /></g><g
         id="g7"><path
           class="cls-1"
           d="m 241.6,36.51 h 8.26 v 3.55 h -8.26 v 15.82 h 8.26 v 3.55 h -19.09 v -3.55 h 6.8 V 40.06 h -6.8 v -3.55 h 5.34 c 0.81,0 1.47,-0.66 1.47,-1.47 v -2.23 c 0,-0.91 0.36,-1.78 1,-2.42 l 3.81,-3.81 c 0.64,-0.64 1.51,-0.98 2.42,-0.98 h 5.04 v 3.53 h -8.26 v 7.38 z"
           id="path5-8" /><path
           class="cls-1"
           d="m 261.11,25.59 h 8.62 v 3.55 h -11.9 v 17.32 h 11.9 v 3.55 h -8.62 c -0.91,0 -1.78,-0.36 -2.42,-1 l -3.88,-3.88 c -0.64,-0.64 -1,-1.51 -1,-2.42 v -9.82 c 0,-0.91 0.36,-1.78 1,-2.42 l 3.88,-3.88 c 0.64,-0.64 1.51,-1 2.42,-1 z"
           id="path6" /><path
           class="cls-1"
           d="m 280.16,43.04 v -13.9 h -6.69 v -3.55 h 5.22 c 0.81,0 1.47,-0.66 1.47,-1.47 V 19.9 h 4.02 v 5.68 h 8.68 v 3.55 h -8.68 v 17.32 h 8.68 V 50 h -6.18 c -0.99,0 -1.93,-0.43 -2.57,-1.17 l -3.1,-3.55 c -0.55,-0.62 -0.85,-1.42 -0.85,-2.25 z"
           id="path7-8" /><rect
           class="cls-1"
           x="253.81"
           y="55.880001"
           width="39.049999"
           height="3.55"
           id="rect7" /></g></g><g
       id="g9"><path
         class="cls-1"
         d="m 9.03,36.56 h 2.62 v 7.49 h 0.14 c 0.37,-0.75 0.86,-1.34 1.46,-1.76 0.61,-0.42 1.37,-0.64 2.28,-0.64 1.46,0 2.62,0.54 3.48,1.63 0.86,1.09 1.3,2.7 1.3,4.85 0,2.15 -0.43,3.76 -1.3,4.85 -0.87,1.09 -2.02,1.63 -3.48,1.63 -0.91,0 -1.67,-0.21 -2.28,-0.64 -0.61,-0.42 -1.1,-1.01 -1.46,-1.76 h -0.14 v 2.11 H 9.03 Z m 5.43,15.92 c 0.99,0 1.76,-0.3 2.29,-0.91 0.53,-0.61 0.8,-1.42 0.8,-2.42 v -2.02 c 0,-1.01 -0.27,-1.82 -0.8,-2.42 -0.54,-0.61 -1.3,-0.91 -2.29,-0.91 -0.38,0 -0.74,0.05 -1.08,0.14 -0.34,0.1 -0.63,0.24 -0.89,0.43 -0.26,0.19 -0.46,0.43 -0.61,0.71 -0.15,0.28 -0.23,0.61 -0.23,1 v 4.13 c 0,0.38 0.08,0.72 0.23,1 0.15,0.28 0.36,0.52 0.61,0.71 0.26,0.19 0.55,0.34 0.89,0.43 0.34,0.1 0.7,0.14 1.08,0.14 z"
         id="path8" /><path
         class="cls-1"
         d="M 32.36,41.94 H 35 l -6,14.78 c -0.32,0.8 -0.74,1.4 -1.26,1.8 -0.52,0.4 -1.27,0.6 -2.24,0.6 h -2.09 v -2.14 h 2.93 l 1.13,-2.83 -4.99,-12.22 h 2.74 l 1.97,5.18 1.54,4.25 h 0.14 l 1.54,-4.25 1.97,-5.18 z"
         id="path9-7" /></g></g></svg>
